<mxfile host="app.diagrams.net" agent="Mozilla/5.0 (Windows NT 10.0; Win64; x64) AppleWebKit/537.36 (KHTML, like Gecko) Chrome/119.0.0.0 Safari/537.36" version="24.7.6">
  <diagram name="P치gina-1" id="KEjB7zSWIBCfEV8CPKD1">
    <mxGraphModel>
      <root>
        <mxCell id="0" />
        <mxCell id="1" parent="0" />
        <mxCell id="2" value="Base de Datos" style="whiteSpace=wrap;strokeWidth=2;verticalAlign=top;" vertex="1" parent="1">
          <mxGeometry x="977" y="37" width="176" height="196" as="geometry" />
        </mxCell>
        <mxCell id="3" value="Tabla de Tareas" style="ellipse;aspect=fixed;strokeWidth=2;whiteSpace=wrap;" vertex="1" parent="1">
          <mxGeometry x="1002" y="72" width="126" height="126" as="geometry" />
        </mxCell>
        <mxCell id="4" value="Servidor" style="whiteSpace=wrap;strokeWidth=2;verticalAlign=top;" vertex="1" parent="1">
          <mxGeometry x="388" width="539" height="271" as="geometry" />
        </mxCell>
        <mxCell id="5" value="API de Tareas" style="ellipse;aspect=fixed;strokeWidth=2;whiteSpace=wrap;" vertex="1" parent="1">
          <mxGeometry x="464" y="80" width="111" height="111" as="geometry" />
        </mxCell>
        <mxCell id="6" value="Servidor de Base de Datos" style="ellipse;aspect=fixed;strokeWidth=2;whiteSpace=wrap;" vertex="1" parent="1">
          <mxGeometry x="701" y="35" width="201" height="201" as="geometry" />
        </mxCell>
        <mxCell id="7" value="Cliente" style="whiteSpace=wrap;strokeWidth=2;verticalAlign=top;" vertex="1" parent="1">
          <mxGeometry y="291" width="651" height="283" as="geometry" />
        </mxCell>
        <mxCell id="8" value="P치gina de inicio" style="ellipse;aspect=fixed;strokeWidth=2;whiteSpace=wrap;" vertex="1" parent="1">
          <mxGeometry x="25" y="358" width="128" height="128" as="geometry" />
        </mxCell>
        <mxCell id="9" value="P치gina de Tareas" style="ellipse;aspect=fixed;strokeWidth=2;whiteSpace=wrap;" vertex="1" parent="1">
          <mxGeometry x="203" y="355" width="135" height="135" as="geometry" />
        </mxCell>
        <mxCell id="10" value="P치gina de Detalles de Tarea" style="ellipse;aspect=fixed;strokeWidth=2;whiteSpace=wrap;" vertex="1" parent="1">
          <mxGeometry x="413" y="326" width="213" height="213" as="geometry" />
        </mxCell>
        <mxCell id="11" value="" style="curved=1;startArrow=none;endArrow=block;exitX=1;exitY=0.5;entryX=0;entryY=0.5;" edge="1" parent="1" source="8" target="9">
          <mxGeometry relative="1" as="geometry">
            <Array as="points" />
          </mxGeometry>
        </mxCell>
        <mxCell id="12" value="" style="curved=1;startArrow=none;endArrow=block;exitX=1;exitY=0.45;entryX=0;entryY=0.43;" edge="1" parent="1" source="9" target="10">
          <mxGeometry relative="1" as="geometry">
            <Array as="points">
              <mxPoint x="363" y="413" />
              <mxPoint x="388" y="413" />
            </Array>
          </mxGeometry>
        </mxCell>
        <mxCell id="13" value="" style="curved=1;startArrow=none;endArrow=block;exitX=0;exitY=0.73;entryX=1;entryY=0.88;" edge="1" parent="1" source="10" target="9">
          <mxGeometry relative="1" as="geometry">
            <Array as="points">
              <mxPoint x="388" y="493" />
              <mxPoint x="363" y="493" />
            </Array>
          </mxGeometry>
        </mxCell>
        <mxCell id="14" value="" style="curved=1;startArrow=none;endArrow=block;exitX=1;exitY=0.17;entryX=0.21;entryY=1;" edge="1" parent="1" source="9" target="5">
          <mxGeometry relative="1" as="geometry">
            <Array as="points">
              <mxPoint x="363" y="362" />
              <mxPoint x="388" y="362" />
            </Array>
          </mxGeometry>
        </mxCell>
        <mxCell id="15" value="" style="curved=1;startArrow=none;endArrow=block;exitX=1;exitY=0.5;entryX=0;entryY=0.5;" edge="1" parent="1" source="5" target="6">
          <mxGeometry relative="1" as="geometry">
            <Array as="points" />
          </mxGeometry>
        </mxCell>
        <mxCell id="16" value="" style="curved=1;startArrow=none;endArrow=block;exitX=1;exitY=0.5;entryX=0;entryY=0.5;" edge="1" parent="1" source="6" target="3">
          <mxGeometry relative="1" as="geometry">
            <Array as="points" />
          </mxGeometry>
        </mxCell>
      </root>
    </mxGraphModel>
  </diagram>
</mxfile>
